<svg xmlns="http://www.w3.org/2000/svg" width="116" height="40" viewBox="0 0 116 40" fill="none"><path d="M58.9527 27.5886C58.9527 28.5782 58.7495 29.3386 58.3432 29.8698C57.9475 30.4012 57.286 30.6668 56.3589 30.6668C55.4839 30.6668 54.8641 30.4012 54.4995 29.8698C54.1453 29.3386 53.9683 28.5782 53.9683 27.5886V11.073C53.9683 10.0834 54.1453 9.32301 54.4995 8.79175C54.8641 8.2605 55.4839 7.99487 56.3589 7.99487C57.286 7.99487 57.9475 8.2605 58.3432 8.79175C58.7495 9.32301 58.9527 10.0834 58.9527 11.073V27.5886Z" fill="#09355D"></path><path d="M60.4657 22.7918C60.4657 21.6875 60.6428 20.6459 60.9971 19.6667C61.3616 18.6771 61.9032 17.8126 62.622 17.073C63.3512 16.3334 64.2575 15.7449 65.3408 15.3074C66.4345 14.8698 67.7157 14.6511 69.1845 14.6511C70.5908 14.6511 71.8356 14.8542 72.9189 15.2605C74.0023 15.6667 74.9137 16.2345 75.6532 16.9637C76.3928 17.6823 76.9553 18.5417 77.3408 19.5417C77.7261 20.5313 77.9189 21.6146 77.9189 22.7918C77.9189 23.8855 77.7365 24.9219 77.372 25.9011C77.0075 26.8698 76.4605 27.7241 75.7313 28.4637C75.0023 29.1927 74.0908 29.7761 72.9971 30.2137C71.9032 30.6407 70.6324 30.8542 69.1845 30.8542C67.7575 30.8542 66.4971 30.6511 65.4032 30.2449C64.3199 29.8282 63.4085 29.2605 62.6689 28.5417C61.9397 27.8126 61.3876 26.9585 61.0127 25.9793C60.648 24.9897 60.4657 23.9271 60.4657 22.7918ZM65.6689 22.7918C65.6689 23.4793 65.7313 24.1355 65.8564 24.7605C65.9813 25.375 66.1793 25.9167 66.4501 26.3855C66.7313 26.8542 67.096 27.2293 67.5439 27.5105C67.9919 27.7813 68.5387 27.9167 69.1845 27.9167C69.7783 27.9167 70.2939 27.7918 70.7313 27.5417C71.1793 27.2918 71.5439 26.9427 71.8252 26.4949C72.1168 26.047 72.3356 25.5105 72.4813 24.8855C72.6272 24.2501 72.7001 23.5522 72.7001 22.7918C72.7001 22.1042 72.6324 21.4531 72.4971 20.8386C72.372 20.2137 72.1689 19.6667 71.8876 19.1979C71.6064 18.7189 71.2419 18.3438 70.7939 18.073C70.3564 17.7918 69.8199 17.6511 69.1845 17.6511C68.5491 17.6511 68.0075 17.7865 67.5595 18.0574C67.1116 18.3282 66.7471 18.6979 66.4657 19.1667C66.1845 19.6355 65.9813 20.1823 65.8564 20.8074C65.7313 21.4323 65.6689 22.0938 65.6689 22.7918Z" fill="#09355D"></path><path d="M90.7445 27.6512C90.4632 28.172 90.1194 28.6146 89.7132 28.9793C89.3174 29.3438 88.8746 29.646 88.3852 29.8856C87.906 30.1146 87.3904 30.2865 86.8382 30.4012C86.2965 30.5053 85.7393 30.5574 85.1664 30.5574C84.208 30.5574 83.333 30.3856 82.5413 30.0417C81.7497 29.698 81.0674 29.2032 80.4945 28.5574C79.932 27.9012 79.4945 27.099 79.182 26.1512C78.8694 25.2032 78.7132 24.1198 78.7132 22.9012C78.7132 21.7553 78.859 20.6824 79.1508 19.6824C79.4424 18.6824 79.8642 17.8126 80.4164 17.073C80.9789 16.3334 81.6664 15.7501 82.4789 15.323C83.2913 14.896 84.2185 14.6824 85.2601 14.6824C86.4476 14.6824 87.4997 14.9116 88.4164 15.3698C89.3434 15.8282 90.1404 16.5782 90.807 17.6198V17.2137C90.807 16.4637 91.0101 15.9012 91.4164 15.5261C91.833 15.1408 92.406 14.948 93.1352 14.948C93.5726 14.948 93.9424 15.0209 94.2445 15.1668C94.5465 15.3022 94.7861 15.5105 94.9632 15.7918C95.1404 16.0626 95.2653 16.4012 95.3382 16.8074C95.4216 17.2032 95.4632 17.6564 95.4632 18.1668V28.6356C95.4632 29.9064 95.3018 31.0417 94.9789 32.0417C94.6664 33.0417 94.1768 33.8856 93.5101 34.573C92.8434 35.2605 91.9893 35.7813 90.9476 36.1356C89.906 36.5001 88.6664 36.6824 87.2289 36.6824C86.2185 36.6824 85.3226 36.6356 84.5413 36.5417C83.7705 36.4585 83.1038 36.3282 82.5413 36.1512C81.9789 35.9532 81.5518 35.7345 81.2601 35.4949C80.9789 35.2553 80.8382 34.9428 80.8382 34.5574C80.8382 34.3386 80.8694 34.1304 80.932 33.9324C80.9945 33.7345 81.0882 33.5574 81.2132 33.4012C81.3486 33.2553 81.5205 33.1356 81.7289 33.0417C81.9476 32.9585 82.2132 32.9168 82.5257 32.9168C82.859 32.9168 83.1924 32.9376 83.5257 32.9793C83.8694 33.0209 84.2237 33.0626 84.5882 33.1042C84.9632 33.1564 85.3538 33.2032 85.7601 33.2449C86.1768 33.2865 86.6246 33.3074 87.1038 33.3074C87.6768 33.3074 88.1872 33.2501 88.6352 33.1356C89.083 33.0209 89.4632 32.8178 89.7757 32.5261C90.0882 32.2345 90.3278 31.8438 90.4945 31.3542C90.6612 30.875 90.7445 30.2605 90.7445 29.5105V27.6512ZM90.7445 22.7918C90.7445 22.0313 90.6872 21.3386 90.5726 20.7137C90.4685 20.0886 90.2861 19.5574 90.0257 19.1198C89.7653 18.672 89.4164 18.3282 88.9789 18.0886C88.5413 17.8386 87.9945 17.7137 87.3382 17.7137C86.6924 17.7137 86.156 17.8438 85.7289 18.1042C85.3122 18.3646 84.9789 18.7241 84.7289 19.1824C84.4789 19.6408 84.3018 20.1772 84.1976 20.7918C84.1038 21.4064 84.057 22.0626 84.057 22.7605C84.057 24.3542 84.3382 25.5522 84.9008 26.3542C85.4632 27.1564 86.2809 27.5574 87.3538 27.5574C87.8538 27.547 88.307 27.4532 88.7132 27.2761C89.1298 27.0886 89.4893 26.8022 89.7913 26.4168C90.0934 26.0313 90.3278 25.5417 90.4945 24.948C90.6612 24.3542 90.7445 23.6356 90.7445 22.7918Z" fill="#09355D"></path><path d="M96.8983 22.7918C96.8983 21.6875 97.0753 20.6459 97.4295 19.6667C97.7941 18.6771 98.3357 17.8126 99.0545 17.073C99.7837 16.3334 100.69 15.7449 101.773 15.3074C102.867 14.8698 104.148 14.6511 105.617 14.6511C107.023 14.6511 108.268 14.8542 109.351 15.2605C110.435 15.6667 111.346 16.2345 112.086 16.9637C112.825 17.6823 113.388 18.5417 113.773 19.5417C114.159 20.5313 114.351 21.6146 114.351 22.7918C114.351 23.8855 114.169 24.9219 113.805 25.9011C113.44 26.8698 112.893 27.7241 112.164 28.4637C111.435 29.1927 110.523 29.7761 109.429 30.2137C108.336 30.6407 107.065 30.8542 105.617 30.8542C104.19 30.8542 102.929 30.6511 101.836 30.2449C100.752 29.8282 99.8409 29.2605 99.1013 28.5417C98.3723 27.8126 97.8201 26.9585 97.445 25.9793C97.0805 24.9897 96.8983 23.9271 96.8983 22.7918ZM102.101 22.7918C102.101 23.4793 102.164 24.1355 102.289 24.7605C102.414 25.375 102.612 25.9167 102.883 26.3855C103.164 26.8542 103.528 27.2293 103.976 27.5105C104.424 27.7813 104.971 27.9167 105.617 27.9167C106.211 27.9167 106.726 27.7918 107.164 27.5417C107.612 27.2918 107.976 26.9427 108.258 26.4949C108.549 26.047 108.768 25.5105 108.914 24.8855C109.06 24.2501 109.133 23.5522 109.133 22.7918C109.133 22.1042 109.065 21.4531 108.929 20.8386C108.805 20.2137 108.601 19.6667 108.32 19.1979C108.039 18.7189 107.674 18.3438 107.226 18.073C106.789 17.7918 106.252 17.6511 105.617 17.6511C104.982 17.6511 104.44 17.7865 103.992 18.0574C103.544 18.3282 103.179 18.6979 102.898 19.1667C102.617 19.6355 102.414 20.1823 102.289 20.8074C102.164 21.4323 102.101 22.0938 102.101 22.7918Z" fill="#09355D"></path><g clip-path="url(#clip0_4739_1878)"><path d="M6.74662 29.7259C8.28679 30.8002 10.7839 30.8002 12.3241 29.7259C13.8642 28.6516 13.8642 26.9098 12.3241 25.8355C10.7839 24.7612 8.28679 24.7612 6.74662 25.8355C5.20645 26.9098 5.20645 28.6516 6.74662 29.7259Z" fill="#25CAAC"></path><path d="M22.7322 15.1371C25.0425 16.7485 28.7881 16.7485 31.0984 15.1371C33.4086 13.5256 33.4086 10.913 31.0984 9.3016C28.7881 7.69016 25.0425 7.69016 22.7322 9.3016C20.422 10.913 20.422 13.5256 22.7322 15.1371Z" fill="#25CAAC"></path><path d="M14.2464 22.4314C16.1716 23.7742 19.293 23.7742 21.2182 22.4314C23.1434 21.0885 23.1434 18.9113 21.2182 17.5684C19.293 16.2256 16.1716 16.2256 14.2464 17.5684C12.3212 18.9113 12.3212 21.0885 14.2464 22.4314Z" fill="#25CAAC"></path><path d="M1.86634 21.4588C3.02147 22.2645 4.8943 22.2645 6.04943 21.4588C7.20455 20.6531 7.20455 19.3468 6.04943 18.541C4.8943 17.7353 3.02147 17.7353 1.86634 18.541C0.711218 19.3468 0.711219 20.6531 1.86634 21.4588Z" fill="#25CAAC"></path><path d="M14.2464 6.87008C16.1716 8.21294 19.293 8.21294 21.2182 6.87008C23.1434 5.52722 23.1434 3.35001 21.2182 2.00715C19.293 0.664284 16.1716 0.664283 14.2464 2.00715C12.3212 3.35001 12.3212 5.52722 14.2464 6.87008Z" fill="#25CAAC"></path><path d="M6.74662 14.1646C8.28679 15.2389 10.7839 15.2389 12.3241 14.1646C13.8642 13.0903 13.8642 11.3485 12.3241 10.2742C10.7839 9.19993 8.28679 9.19993 6.74662 10.2742C5.20645 11.3485 5.20646 13.0903 6.74662 14.1646Z" fill="#25CAAC"></path><path d="M14.2464 37.9929C16.1716 39.3357 19.293 39.3357 21.2182 37.9929C23.1434 36.65 23.1434 34.4728 21.2182 33.1299C19.293 31.7871 16.1716 31.7871 14.2464 33.1299C12.3212 34.4728 12.3212 36.65 14.2464 37.9929Z" fill="#25CAAC"></path><path d="M32.9011 22.9179C35.2114 24.5293 38.9571 24.5293 41.2673 22.9179C43.5776 21.3065 43.5776 18.6938 41.2673 17.0824C38.9571 15.4709 35.2114 15.4709 32.9011 17.0824C30.5909 18.6938 30.5909 21.3065 32.9011 22.9179Z" fill="#25CAAC"></path><path d="M22.7322 30.6983C25.0425 32.3098 28.7881 32.3098 31.0984 30.6983C33.4086 29.0869 33.4086 26.4743 31.0984 24.8628C28.7881 23.2514 25.0425 23.2514 22.7322 24.8628C20.422 26.4743 20.422 29.0869 22.7322 30.6983Z" fill="#25CAAC"></path></g><defs><clipPath id="clip0_4739_1878"><rect width="42" height="38" fill="white" transform="translate(1 1)"></rect></clipPath></defs></svg>