<svg xmlns="http://www.w3.org/2000/svg" width="56" height="56" viewBox="0 0 56 56" fill="none"><g clip-path="url(#clip0_4739_1830)"><path fill-rule="evenodd" clip-rule="evenodd" d="M27.88 1.25391C42.8957 1.25391 55.0684 13.4265 55.0684 28.4423C55.0684 43.4581 42.8957 55.6308 27.88 55.6308C12.8641 55.6308 0.691493 43.4581 0.691493 28.4423C0.691493 13.4265 12.8641 1.25391 27.88 1.25391ZM54.0248 28.4423C54.0248 14.0029 42.3193 2.2974 27.88 2.2974C26.7152 2.2974 25.5684 2.37356 24.4438 2.52117C25.1704 2.45765 25.9056 2.42523 26.6485 2.42523C40.4461 2.42523 51.6313 13.6104 51.6313 27.408C51.6313 41.2055 40.4461 52.3907 26.6485 52.3907C13.5859 52.3907 2.86482 42.3655 1.75971 29.5893C2.36004 43.4965 13.8248 54.5872 27.88 54.5872C42.3193 54.5872 54.0248 42.8817 54.0248 28.4423ZM50.5877 27.408C50.5877 14.1867 39.8698 3.46873 26.6485 3.46873C25.575 3.46873 24.518 3.5394 23.4818 3.67632C24.1198 3.62264 24.7653 3.59525 25.4172 3.59525C37.9966 3.59525 48.1942 13.7929 48.1942 26.3723C48.1942 38.9517 37.9966 49.1493 25.4172 49.1493C13.523 49.1493 3.75819 40.0324 2.7297 28.4055C3.25262 41.1641 13.7614 51.3472 26.6485 51.3472C39.8698 51.3472 50.5877 40.6292 50.5877 27.408ZM25.4172 4.63876C37.4202 4.63876 47.1508 14.3692 47.1508 26.3723C47.1508 38.3753 37.4202 48.1057 25.4172 48.1057C13.6922 48.1057 4.13572 38.8209 3.69926 27.2027C4.64159 37.6893 13.454 45.9079 24.186 45.9079C35.5464 45.9079 44.756 36.6984 44.756 25.3379C44.756 13.9773 35.5464 4.76788 24.186 4.76788C23.5982 4.76788 23.0162 4.79253 22.441 4.84084C23.4141 4.7076 24.4076 4.63876 25.4172 4.63876ZM43.7124 25.3379C43.7124 14.5537 34.9701 5.81139 24.186 5.81139C23.2748 5.81139 22.3781 5.87379 21.5002 5.99456C21.9796 5.95704 22.4641 5.93793 22.9532 5.93793C33.0956 5.93793 41.3176 14.1599 41.3176 24.3023C41.3176 34.4445 33.0956 42.6665 22.9532 42.6665C13.407 42.6665 5.56204 35.3827 4.67283 26.0695C5.05754 36.5147 13.6466 44.8644 24.186 44.8644C34.9701 44.8644 43.7124 36.1221 43.7124 25.3379ZM22.9532 6.98143C32.5192 6.98143 40.274 14.7363 40.274 24.3023C40.274 33.8683 32.5192 41.6231 22.9532 41.6231C13.5756 41.6231 5.93863 34.1708 5.64138 24.8655C6.44422 33.0391 13.3373 39.4252 21.7218 39.4252C30.6461 39.4252 37.8805 32.1907 37.8805 23.2665C37.8805 14.3424 30.6461 7.10795 21.7218 7.10795C21.3126 7.10795 20.9069 7.12316 20.5053 7.15305C21.305 7.03993 22.1222 6.98143 22.9532 6.98143ZM36.837 23.2665C36.837 14.9187 30.0697 8.15145 21.7218 8.15145C20.9598 8.15145 20.211 8.20784 19.4793 8.31667C19.8133 8.29275 20.1505 8.28057 20.4906 8.28057C28.1958 8.28057 34.4422 14.5269 34.4422 22.2321C34.4422 29.9375 28.1958 36.1837 20.4906 36.1837C13.2703 36.1837 7.33112 30.6991 6.61202 23.6687C6.8252 31.8307 13.5085 38.3817 21.7218 38.3817C30.0697 38.3817 36.837 31.6144 36.837 23.2665ZM20.4906 9.32408C27.6196 9.32408 33.3986 15.1032 33.3986 22.2321C33.3986 29.3612 27.6196 35.1403 20.4906 35.1403C13.4523 35.1403 7.72978 29.5073 7.58526 22.5037C8.23543 28.3756 13.214 32.9424 19.2593 32.9424C25.7464 32.9424 31.0052 27.6836 31.0052 21.1965C31.0052 14.7095 25.7464 9.4506 19.2593 9.4506C19.0112 9.4506 18.7649 9.45829 18.5206 9.47345C19.1629 9.37509 19.8208 9.32408 20.4906 9.32408ZM29.9617 21.1965C29.9617 15.2857 25.1701 10.4941 19.2593 10.4941C18.6657 10.4941 18.0834 10.5424 17.5161 10.6353C17.6852 10.6264 17.8553 10.6219 18.0266 10.6219C23.2954 10.6219 27.5668 14.8932 27.5668 20.1621C27.5668 25.4311 23.2954 29.7024 18.0266 29.7024C13.1547 29.7024 9.1357 26.0504 8.55772 21.3347C8.63172 27.1819 13.3946 31.8989 19.2593 31.8989C25.1701 31.8989 29.9617 27.1073 29.9617 21.1965ZM18.0266 11.6654C22.7192 11.6654 26.5233 15.4695 26.5233 20.1621C26.5233 24.8548 22.7192 28.6588 18.0266 28.6588C13.334 28.6588 9.52987 24.8548 9.52987 20.1621C9.52987 20.1509 9.5299 20.1396 9.52994 20.1284C10.0185 23.7044 13.0851 26.4597 16.7953 26.4597C20.8453 26.4597 24.1285 23.1765 24.1285 19.1265C24.1285 15.0764 20.8453 11.7933 16.7953 11.7933C16.7037 11.7933 16.6125 11.7949 16.5217 11.7983C17.0101 11.711 17.513 11.6654 18.0266 11.6654ZM23.0849 19.1265C23.0849 15.6528 20.269 12.8368 16.7953 12.8368C13.3216 12.8368 10.5056 15.6528 10.5056 19.1265C10.5056 22.6001 13.3216 25.4161 16.7953 25.4161C20.269 25.4161 23.0849 22.6001 23.0849 19.1265Z" fill="#1A1414"></path></g><defs><clipPath id="clip0_4739_1830"><rect width="54.6667" height="56" fill="white" transform="translate(0.666672)"></rect></clipPath></defs></svg>