<svg xmlns="http://www.w3.org/2000/svg" width="96" height="40" viewBox="0 0 96 40" fill="none"><g clip-path="url(#clip0_4743_255)"><path d="M52.0821 10.2839H48.5V26.4472H58.4164V23.2801H52.0821V10.2839Z" fill="#243A5A"></path><path d="M58.7585 20.9649C58.7585 24.416 61.0738 26.7094 64.5685 26.7094C68.0414 26.7094 70.3567 24.416 70.3567 20.9649C70.3567 17.5138 68.0414 15.1985 64.5685 15.1985C61.0738 15.1985 58.7585 17.5138 58.7585 20.9649ZM62.144 20.943C62.144 19.3049 63.1051 18.2128 64.5685 18.2128C66.0101 18.2128 66.9712 19.3049 66.9712 20.943C66.9712 22.6031 66.0101 23.6952 64.5685 23.6952C63.1051 23.6952 62.144 22.6031 62.144 20.943Z" fill="#243A5A"></path><path d="M70.8978 20.7901C70.8978 24.0882 73.0384 26.3161 76.0744 26.3161C77.5379 26.3161 78.8047 25.7919 79.4381 24.9401V26.4472C79.4381 27.9543 78.4989 28.959 76.8389 28.959C75.3536 28.959 74.327 28.2601 74.2615 27.0151H70.8541C71.1599 30.0075 73.4752 32.0169 76.6423 32.0169C80.3773 32.0169 82.7363 29.5925 82.7363 25.7482V15.5261H79.7002L79.5255 16.64C78.9139 15.7445 77.6252 15.1548 76.14 15.1548C73.082 15.1548 70.8978 17.4482 70.8978 20.7901ZM74.3052 20.7027C74.3052 19.13 75.3536 18.0816 76.686 18.0816C78.2368 18.0816 79.3726 19.1082 79.3726 20.7027C79.3726 22.2972 78.2586 23.3893 76.7078 23.3893C75.3755 23.3893 74.3052 22.2972 74.3052 20.7027Z" fill="#243A5A"></path><path d="M83.7166 20.9649C83.7166 24.416 86.0319 26.7094 89.5267 26.7094C92.9996 26.7094 95.3148 24.416 95.3148 20.9649C95.3148 17.5138 92.9996 15.1985 89.5267 15.1985C86.0319 15.1985 83.7166 17.5138 83.7166 20.9649ZM87.1022 20.943C87.1022 19.3049 88.0632 18.2128 89.5267 18.2128C90.9682 18.2128 91.9293 19.3049 91.9293 20.943C91.9293 22.6031 90.9682 23.6952 89.5267 23.6952C88.0632 23.6952 87.1022 22.6031 87.1022 20.943Z" fill="#243A5A"></path><path d="M0.5 20C0.5 10.5719 0.5 5.85786 3.42893 2.92893C6.35786 0 11.0719 0 20.5 0C29.9281 0 34.6421 0 37.5711 2.92893C40.5 5.85786 40.5 10.5719 40.5 20C40.5 29.4281 40.5 34.1421 37.5711 37.0711C34.6421 40 29.9281 40 20.5 40C11.0719 40 6.35786 40 3.42893 37.0711C0.5 34.1421 0.5 29.4281 0.5 20Z" fill="#243A5A"></path><path d="M24.5 26C25.0523 26 25.5101 26.4521 25.4004 26.9934C25.2065 27.9494 24.7355 28.8355 24.0355 29.5355C23.0979 30.4732 21.8261 31 20.5 31C19.1739 31 17.9022 30.4732 16.9645 29.5355C16.2645 28.8355 15.7935 27.9494 15.5997 26.9934C15.4899 26.4521 15.9477 26 16.5 26H24.5Z" fill="#2DF8BB"></path><path d="M26.6023 17.7765C26.0688 17.9194 25.7421 18.4775 26.0126 18.959C26.2973 19.4658 26.6911 19.9081 27.1702 20.2514C27.9224 20.7904 28.8382 21.052 29.7617 20.9914C30.6851 20.9309 31.559 20.5521 32.2344 19.9195C32.9099 19.2869 33.345 18.4396 33.4658 17.5221C33.5866 16.6046 33.3856 15.6736 32.8969 14.8877C32.4082 14.1019 31.6621 13.5098 30.7858 13.2123C29.9095 12.9148 28.9572 12.9304 28.0911 13.2564C27.5395 13.464 27.0447 13.7893 26.6385 14.2051C26.2526 14.6002 26.4237 15.2239 26.902 15.5L27.4093 15.7929C28.1808 16.2384 28.0287 17.3943 27.1681 17.6249L26.6023 17.7765Z" fill="#2DF8BB"></path><path d="M14.3978 17.7765C14.9313 17.9194 15.258 18.4775 14.9875 18.959C14.7028 19.4658 14.309 19.9081 13.83 20.2514C13.0778 20.7904 12.1619 21.052 11.2385 20.9914C10.315 20.9309 9.44113 20.5521 8.7657 19.9195C8.09027 19.2869 7.65508 18.4396 7.53429 17.5221C7.4135 16.6046 7.61457 15.6736 8.10326 14.8877C8.59194 14.1019 9.338 13.5098 10.2143 13.2123C11.0906 12.9148 12.043 12.9304 12.9091 13.2564C13.4606 13.464 13.9555 13.7893 14.3617 14.2051C14.7476 14.6002 14.5764 15.2239 14.0981 15.5L13.5908 15.7929C12.8193 16.2384 12.9715 17.3943 13.832 17.6249L14.3978 17.7765Z" fill="#2DF8BB"></path></g><defs><clipPath id="clip0_4743_255"><rect width="95" height="40" fill="white" transform="translate(0.5)"></rect></clipPath></defs></svg>