<svg xmlns="http://www.w3.org/2000/svg" width="60" height="30" viewBox="0 0 60 30" fill="none"><path d="M0.246002 0.842041H4.7466V22.7389H0.246002V0.842041ZM7.29483 15.2399C7.28998 13.6674 7.75166 12.1289 8.62161 10.8192C9.49157 9.50933 10.7307 8.4871 12.1819 7.88197C13.6333 7.27681 15.2314 7.11589 16.7743 7.41962C18.3171 7.72336 19.7351 8.47798 20.8487 9.58819C21.9623 10.6983 22.7215 12.1138 23.03 13.6556C23.3385 15.1975 23.1827 16.7962 22.5821 18.2494C21.9816 19.7025 20.9633 20.9449 19.6562 21.819C18.3492 22.693 16.8121 23.1597 15.2397 23.1597C14.1954 23.1708 13.1593 22.9738 12.1919 22.58C11.2247 22.1863 10.3455 21.6037 9.60589 20.8665C8.86614 20.1291 8.28087 19.2518 7.88407 18.2857C7.48727 17.3197 7.28703 16.2842 7.29483 15.2399ZM18.6942 15.2399C18.6765 14.5615 18.4594 13.9036 18.0696 13.3482C17.68 12.7928 17.1352 12.3645 16.5035 12.117C15.8716 11.8697 15.181 11.8139 14.5177 11.9571C13.8545 12.1001 13.2482 12.4357 12.7746 12.9215C12.301 13.4074 11.9812 14.0221 11.8552 14.6888C11.7292 15.3555 11.8025 16.0445 12.0661 16.6698C12.3296 17.295 12.7718 17.8286 13.337 18.2039C13.9023 18.5792 14.5657 18.7795 15.2441 18.7798C15.7087 18.793 16.1711 18.7097 16.6019 18.5354C17.0328 18.3612 17.4229 18.0995 17.7476 17.7668C18.0723 17.4343 18.3246 17.0381 18.4885 16.6032C18.6524 16.1681 18.7245 15.7039 18.7001 15.2399H18.6942ZM41.1295 7.73646V21.9857C41.1295 27.0247 37.1997 29.1537 33.2111 29.1537C31.8073 29.2596 30.4012 28.977 29.1471 28.3367C27.8931 27.6965 26.8395 26.7233 26.102 25.524L29.9405 23.3039C30.2504 23.9298 30.744 24.4462 31.3553 24.7841C31.9666 25.1219 32.6663 25.2651 33.3612 25.1945C33.8048 25.255 34.2562 25.2152 34.6823 25.078C35.1083 24.9407 35.4981 24.7097 35.8229 24.4016C36.1476 24.0937 36.3991 23.7167 36.5587 23.2985C36.7184 22.8803 36.7821 22.4316 36.7451 21.9857V20.6056C36.2181 21.25 35.5474 21.762 34.7869 22.1006C34.0262 22.4391 33.1969 22.5948 32.3652 22.555C30.3856 22.4934 28.5075 21.6637 27.1289 20.2416C25.7504 18.8195 24.9794 16.9167 24.9794 14.9361C24.9794 12.9553 25.7504 11.0525 27.1289 9.63042C28.5075 8.20829 30.3856 7.3786 32.3652 7.31708C33.1969 7.27729 34.0262 7.43289 34.7869 7.77147C35.5474 8.11001 36.2181 8.62201 36.7451 9.26657V7.73646H41.1295ZM36.751 14.9354C36.7807 14.2109 36.593 13.4943 36.2121 12.8774C35.8312 12.2604 35.2745 11.7715 34.6134 11.4736C33.9525 11.1757 33.2175 11.0823 32.503 11.2054C31.7886 11.3286 31.1273 11.6625 30.6041 12.1645C30.0809 12.6665 29.7198 13.3134 29.5674 14.0221C29.4148 14.731 29.4778 15.4691 29.7482 16.1419C30.0185 16.8146 30.484 17.391 31.0846 17.7971C31.6852 18.2032 32.3936 18.4203 33.1185 18.4208C33.5912 18.4539 34.0657 18.3878 34.5113 18.2267C34.957 18.0656 35.3639 17.813 35.7061 17.4851C36.0482 17.1573 36.318 16.7613 36.498 16.3231C36.6779 15.8846 36.7641 15.4134 36.751 14.9398V14.9354ZM43.6777 15.2296C43.6729 13.6571 44.1346 12.1186 45.0045 10.8089C45.8745 9.49903 47.1136 8.4768 48.5648 7.87167C50.0162 7.26651 51.6143 7.1056 53.1572 7.40932C54.7 7.71307 56.1179 8.46768 57.2316 9.57789C58.3452 10.688 59.1044 12.1035 59.4129 13.6453C59.7214 15.1872 59.5656 16.7859 58.965 18.2391C58.3645 19.6922 57.3462 20.9346 56.0391 21.8087C54.7321 22.6827 53.195 23.1494 51.6226 23.1494C50.5791 23.1605 49.5439 22.9637 48.5773 22.5706C47.6107 22.1777 46.7319 21.5959 45.9925 20.8597C45.2529 20.1235 44.6674 19.2475 44.2701 18.2825C43.8725 17.3176 43.6713 16.2833 43.6777 15.2399V15.2296ZM55.0771 15.2296C55.0597 14.5509 54.8426 13.8924 54.453 13.3364C54.0632 12.7805 53.5181 12.352 52.8861 12.1042C52.2539 11.8564 51.5628 11.8007 50.8991 11.9438C50.2354 12.0868 49.6287 12.4226 49.1549 12.9087C48.6811 13.3949 48.3611 14.0101 48.2351 14.6771C48.109 15.3442 48.1826 16.0338 48.4464 16.6592C48.7103 17.2848 49.1527 17.8186 49.7184 18.1941C50.2843 18.5694 50.9481 18.7695 51.627 18.7695C52.0903 18.7817 52.5509 18.6983 52.9804 18.5242C53.4098 18.3502 53.7987 18.0892 54.1227 17.7578C54.4465 17.4265 54.6985 17.0318 54.8627 16.5985C55.0271 16.1652 55.1 15.7026 55.0771 15.2399V15.2296Z" fill="#001A49"></path></svg>