<svg xmlns="http://www.w3.org/2000/svg" width="60" height="48" viewBox="0 0 60 48" fill="none"><path d="M30.0001 0L60 18.0118V29.9836L30.0001 48L0 29.9836V18.0119L30.0001 0Z" fill="#A5B4FC"></path><path fill-rule="evenodd" clip-rule="evenodd" d="M0 18.0118L30 0L60 18.0118V29.9836L30 48L0 29.9836V18.0118ZM30 40.3572L53.636 26.1626V21.8341L53.6348 21.8334L30 36.0236L6.36511 21.8334L6.36396 21.8341V26.1626L30 40.3572ZM30 29.4055L48.1222 18.5251L43.7075 15.8758L30 24.1057L16.2925 15.8758L11.8779 18.5251L30 29.4055ZM30 17.4876L38.1948 12.5675L30 7.6496L21.8052 12.5675L30 17.4876Z" fill="#4F46E5"></path><path d="M30.0001 0L0 18.0119V29.9836L30 48L30.0001 0Z" fill="#A5B4FC" fill-opacity="0.3"></path></svg>