<svg xmlns="http://www.w3.org/2000/svg" width="104" height="40" viewBox="0 0 104 40" fill="none"><path d="M50.9798 28.6079H62.6403V25.0957H55.1242V11.8665H50.9798V28.6079Z" fill="#2F234F"></path><path d="M69.5487 26.2666C67.8863 26.2666 67.0199 24.8149 67.0199 22.6374C67.0199 20.4598 67.8863 18.9847 69.5487 18.9847C71.2111 18.9847 72.1009 20.4598 72.1009 22.6374C72.1009 24.8149 71.2111 26.2666 69.5487 26.2666ZM69.5721 28.9827C73.4355 28.9827 75.9643 26.2432 75.9643 22.6374C75.9643 19.0315 73.4355 16.292 69.5721 16.292C65.7321 16.292 63.1565 19.0315 63.1565 22.6374C63.1565 26.2432 65.7321 28.9827 69.5721 28.9827Z" fill="#2F234F"></path><path d="M82.6515 32.7525C84.431 32.7525 85.9998 32.3544 87.0535 31.4178C88.0135 30.5515 88.6457 29.2403 88.6457 27.4373V16.6198H84.993V17.9076H84.9462C84.2437 16.9008 83.1667 16.2686 81.5745 16.2686C78.6008 16.2686 76.5403 18.7505 76.5403 22.2627C76.5403 25.9388 79.0457 27.9525 81.7384 27.9525C83.1901 27.9525 84.1032 27.3671 84.8057 26.571H84.8993V27.7651C84.8993 29.2168 84.2203 30.0598 82.6047 30.0598C81.3403 30.0598 80.7081 29.5212 80.4974 28.889H76.7979C77.1725 31.3944 79.3501 32.7525 82.6515 32.7525ZM82.6281 25.1193C81.1998 25.1193 80.2632 23.9486 80.2632 22.1456C80.2632 20.3193 81.1998 19.1486 82.6281 19.1486C84.2203 19.1486 85.0632 20.5066 85.0632 22.1222C85.0632 23.8081 84.2906 25.1193 82.6281 25.1193Z" fill="#2F234F"></path><path d="M96.1563 26.2666C94.4939 26.2666 93.6275 24.8149 93.6275 22.6374C93.6275 20.4598 94.4939 18.9847 96.1563 18.9847C97.8187 18.9847 98.7081 20.4598 98.7081 22.6374C98.7081 24.8149 97.8187 26.2666 96.1563 26.2666ZM96.1797 28.9827C100.043 28.9827 102.572 26.2432 102.572 22.6374C102.572 19.0315 100.043 16.292 96.1797 16.292C92.3397 16.292 89.7641 19.0315 89.7641 22.6374C89.7641 26.2432 92.3397 28.9827 96.1797 28.9827Z" fill="#2F234F"></path><path fill-rule="evenodd" clip-rule="evenodd" d="M20.5641 39.3398C31.3405 39.3398 40.0763 30.6039 40.0763 19.8276C40.0763 9.05133 31.3405 0.31543 20.5641 0.31543C9.78785 0.31543 1.05196 9.05133 1.05196 19.8276C1.05196 30.6039 9.78785 39.3398 20.5641 39.3398ZM23.5758 15.3911C25.239 13.7278 25.239 11.0311 23.5758 9.36778C21.9125 7.70448 19.2158 7.70448 17.5525 9.36778C15.8893 11.0311 15.8893 13.7278 17.5525 15.3911L20.5641 18.4027L23.5758 15.3911ZM25.0007 22.8393C26.664 24.5026 29.3607 24.5026 31.024 22.8393C32.6872 21.176 32.6872 18.4793 31.024 16.816C29.3607 15.1528 26.664 15.1528 25.0007 16.816L21.9891 19.8277L25.0007 22.8393ZM23.5758 30.2875C25.239 28.6242 25.239 25.9275 23.5758 24.2642L20.5641 21.2526L17.5525 24.2642C15.8893 25.9275 15.8893 28.6242 17.5525 30.2875C19.2158 31.9508 21.9125 31.9508 23.5758 30.2875ZM10.1043 22.8393C8.44102 21.176 8.44102 18.4793 10.1043 16.816C11.7676 15.1528 14.4643 15.1528 16.1276 16.816L19.1392 19.8277L16.1276 22.8393C14.4643 24.5026 11.7676 24.5026 10.1043 22.8393Z" fill="#7F57F1"></path></svg>